<svg xmlns="http://www.w3.org/2000/svg" xmlns:xlink="http://www.w3.org/1999/xlink"><defs>
<linearGradient id="paint0_linear_1_144" x1="371.981" y1="465.977" x2="-106.248" y2="-315.205" gradientUnits="userSpaceOnUse">
<stop stop-color="white"/>
<stop offset="0.606582" stop-color="white" stop-opacity="0"/>
</linearGradient>
<linearGradient id="paint1_linear_1_144" x1="170.532" y1="92.1739" x2="181.771" y2="226.408" gradientUnits="userSpaceOnUse">
<stop stop-color="#0D80F2" stop-opacity="0"/>
<stop offset="1" stop-color="#0D80F2"/>
</linearGradient>
<linearGradient id="paint2_linear_1_144" x1="376.379" y1="195.982" x2="979.15" y2="292.55" gradientUnits="userSpaceOnUse">
<stop stop-color="white" stop-opacity="0"/>
<stop offset="1" stop-color="white"/>
</linearGradient>
<clipPath id="clip0_1_144">
<rect width="954" height="240" fill="white"/>
</clipPath>
<clipPath id="clip1_1_144">
<rect width="954" height="240" fill="white"/>
</clipPath>

<clipPath id="clip0_3_1102">
<rect width="126" height="32" fill="white"/>
</clipPath>
</defs><symbol id="arrow" viewBox="0 0 18 10">
<path d="M1.33332 9L5.49999 5L9.66665 1L18 9" stroke="black" stroke-opacity="0.7" stroke-linecap="square" stroke-linejoin="round"/>
</symbol><symbol id="attention" viewBox="0 0 30 30"><path d="M15,3C8.373,3,3,8.373,3,15c0,6.627,5.373,12,12,12s12-5.373,12-12C27,8.373,21.627,3,15,3z M16.212,8l-0.2,9h-2.024l-0.2-9  H16.212z M15.003,22.189c-0.828,0-1.323-0.441-1.323-1.182c0-0.755,0.494-1.196,1.323-1.196c0.822,0,1.316,0.441,1.316,1.196  C16.319,21.748,15.825,22.189,15.003,22.189z"/></symbol><symbol id="avatar" viewBox="0 0 24 24">
<rect width="24" height="24" rx="12" fill="#3554F4"/>
<path d="M15.9218 7.57886H15.9215L12.0554 10.1931L8.18939 7.57886H5.20844V9.90178H6.71314L9.59963 11.8536L6.72341 13.7986H5.20844V16.1216H8.19966L12.0554 13.5141L15.9115 16.1216H18.9025V13.7986H17.3875L14.5113 11.8536L17.3978 9.90178H18.9025V7.57886H15.9218Z" fill="white"/>
</symbol><symbol id="img" viewBox="0 0 954 240">
<g clip-path="url(#clip0_1_144)">
<rect width="954" height="240" fill="#363E45"/>
<g clip-path="url(#clip1_1_144)">
<rect width="954" height="240" fill="#0D80F2"/>
<path d="M134.965 380.273C164.745 428.577 207.259 467.671 260.592 500.683C293.931 521.319 327.966 535.831 362.009 544.65L462.992 381.506C423.985 385.287 383.23 376.386 343.931 352.061C333.003 345.297 323.3 338.319 314.636 331.079C437.757 317.939 507.259 257.744 546.779 193.897C612.824 87.1967 595.882 -47.9907 482.458 -118.198C369.034 -188.405 238.105 -148.179 151.068 -7.5661C100.336 74.3948 82.3564 161.333 88.8323 237.988C57.1564 247.177 30.5992 258.619 8.08117 272.275L102.348 394.565C111.451 389.263 122.177 384.45 134.962 380.26L134.965 380.273ZM280.976 79.7087C309.135 34.2162 356.878 4.27822 396.773 28.9718C431.973 50.7603 432.557 90.0193 414.638 118.969C394.159 152.055 364.748 171.603 289.925 189.356L247.158 199.699C244.781 161.012 255.582 120.735 280.976 79.7087Z" fill="url(#paint0_linear_1_144)"/>
<path d="M79.4581 239.824C72.5279 157.521 91.8574 64.1841 146.351 -23.799L285.802 69.943C258.525 113.983 246.917 157.224 249.458 198.762L79.4581 239.824Z" fill="url(#paint1_linear_1_144)"/>
<path d="M963.038 498.602C1013.85 486.931 1061 462.727 1106.54 428.316C1135 406.805 1158.49 383.19 1177.14 358.131L1071.58 235.994C1062.01 268.214 1041.09 298.632 1007.54 323.988C998.209 331.039 989.1 337.054 980.108 342.171C1009.29 240.168 980.905 169.261 939.595 121.463C870.558 41.5819 750.116 21.0236 653.282 94.2064C556.447 167.389 547.728 282.489 638.708 387.758C691.738 449.118 759.732 485.482 826.999 499.649C824.429 527.358 825.45 551.533 829.676 573.03L964.496 528.354C962.973 519.719 962.397 509.907 963.026 498.601L963.038 498.602ZM755.449 305.673C726.015 271.615 716.217 225.788 750.276 200.048C780.328 177.336 813.884 186.782 832.615 208.455C854.022 233.224 860.997 261.734 851.565 326.189L846.342 363.079C812.684 355.215 781.994 336.387 755.449 305.673Z" fill="url(#paint2_linear_1_144)" fill-opacity="0.8"/>
</g>
</g>

</symbol><symbol id="logo" viewBox="0 0 126 32">
<g clip-path="url(#clip0_3_1102)">
<mask id="mask0_3_1102" style="mask-type:luminance" maskUnits="userSpaceOnUse" x="0" y="0" width="126" height="32">
<path d="M126 0H0V32H126V0Z" fill="white"/>
</mask>
<g mask="url(#mask0_3_1102)">
<path d="M45.752 25.0909H80.6107V18.2682H54.9882V14.6578H78.7198V10.4331H54.9882V6.82269H80.6107V0H45.752V25.0909Z" fill="black"/>
<path d="M38.8653 25.1622V0H29.6441V18.3202H9.22119V0H0V25.1622H34.7171L34.7258 32H43.9366V25.1622H38.8653Z" fill="black"/>
<path d="M117.227 0L105.847 7.67832L94.4681 0H85.6943V6.82269H90.1231L98.6189 12.5554L90.1533 18.2682H85.6943V25.0909H94.4984L105.847 17.4324L117.197 25.0909H126V18.2682H121.541L113.075 12.5554L121.571 6.82269H126V0H117.227Z" fill="black"/>
</g>
</g>

</symbol></svg>